<mxfile host="65bd71144e" pages="2">
    <diagram name="Page-1" id="2YBvvXClWsGukQMizWep">
        <mxGraphModel dx="947" dy="540" grid="1" gridSize="10" guides="1" tooltips="1" connect="1" arrows="1" fold="1" page="1" pageScale="1" pageWidth="850" pageHeight="1100" math="0" shadow="0">
            <root>
                <mxCell id="0"/>
                <mxCell id="1" parent="0"/>
                <mxCell id="aM9ryv3xv72pqoxQDRHE-1" value=":Object" style="shape=umlLifeline;perimeter=lifelinePerimeter;whiteSpace=wrap;html=1;container=0;dropTarget=0;collapsible=0;recursiveResize=0;outlineConnect=0;portConstraint=eastwest;newEdgeStyle={&quot;edgeStyle&quot;:&quot;elbowEdgeStyle&quot;,&quot;elbow&quot;:&quot;vertical&quot;,&quot;curved&quot;:0,&quot;rounded&quot;:0};" parent="1" vertex="1">
                    <mxGeometry x="40" y="40" width="100" height="300" as="geometry"/>
                </mxCell>
                <mxCell id="aM9ryv3xv72pqoxQDRHE-2" value="" style="html=1;points=[];perimeter=orthogonalPerimeter;outlineConnect=0;targetShapes=umlLifeline;portConstraint=eastwest;newEdgeStyle={&quot;edgeStyle&quot;:&quot;elbowEdgeStyle&quot;,&quot;elbow&quot;:&quot;vertical&quot;,&quot;curved&quot;:0,&quot;rounded&quot;:0};" parent="aM9ryv3xv72pqoxQDRHE-1" vertex="1">
                    <mxGeometry x="45" y="70" width="10" height="190" as="geometry"/>
                </mxCell>
                <mxCell id="aM9ryv3xv72pqoxQDRHE-3" value="dispatch" style="html=1;verticalAlign=bottom;startArrow=oval;endArrow=block;startSize=8;edgeStyle=elbowEdgeStyle;elbow=vertical;curved=0;rounded=0;" parent="aM9ryv3xv72pqoxQDRHE-1" target="aM9ryv3xv72pqoxQDRHE-2" edge="1">
                    <mxGeometry relative="1" as="geometry">
                        <mxPoint x="-15" y="70" as="sourcePoint"/>
                    </mxGeometry>
                </mxCell>
                <mxCell id="aM9ryv3xv72pqoxQDRHE-4" value="" style="html=1;points=[];perimeter=orthogonalPerimeter;outlineConnect=0;targetShapes=umlLifeline;portConstraint=eastwest;newEdgeStyle={&quot;edgeStyle&quot;:&quot;elbowEdgeStyle&quot;,&quot;elbow&quot;:&quot;vertical&quot;,&quot;curved&quot;:0,&quot;rounded&quot;:0};" parent="aM9ryv3xv72pqoxQDRHE-1" vertex="1">
                    <mxGeometry x="50" y="120" width="10" height="80" as="geometry"/>
                </mxCell>
                <mxCell id="aM9ryv3xv72pqoxQDRHE-5" value=":Object" style="shape=umlLifeline;perimeter=lifelinePerimeter;whiteSpace=wrap;html=1;container=0;dropTarget=0;collapsible=0;recursiveResize=0;outlineConnect=0;portConstraint=eastwest;newEdgeStyle={&quot;edgeStyle&quot;:&quot;elbowEdgeStyle&quot;,&quot;elbow&quot;:&quot;vertical&quot;,&quot;curved&quot;:0,&quot;rounded&quot;:0};" parent="1" vertex="1">
                    <mxGeometry x="220" y="40" width="100" height="300" as="geometry"/>
                </mxCell>
                <mxCell id="aM9ryv3xv72pqoxQDRHE-6" value="" style="html=1;points=[];perimeter=orthogonalPerimeter;outlineConnect=0;targetShapes=umlLifeline;portConstraint=eastwest;newEdgeStyle={&quot;edgeStyle&quot;:&quot;elbowEdgeStyle&quot;,&quot;elbow&quot;:&quot;vertical&quot;,&quot;curved&quot;:0,&quot;rounded&quot;:0};" parent="aM9ryv3xv72pqoxQDRHE-5" vertex="1">
                    <mxGeometry x="45" y="80" width="10" height="170" as="geometry"/>
                </mxCell>
                <mxCell id="aM9ryv3xv72pqoxQDRHE-7" value="dispatch" style="html=1;verticalAlign=bottom;endArrow=block;edgeStyle=elbowEdgeStyle;elbow=vertical;curved=0;rounded=0;" parent="1" source="aM9ryv3xv72pqoxQDRHE-2" target="aM9ryv3xv72pqoxQDRHE-6" edge="1">
                    <mxGeometry relative="1" as="geometry">
                        <mxPoint x="195" y="130" as="sourcePoint"/>
                        <Array as="points">
                            <mxPoint x="180" y="120"/>
                        </Array>
                    </mxGeometry>
                </mxCell>
                <mxCell id="aM9ryv3xv72pqoxQDRHE-8" value="return" style="html=1;verticalAlign=bottom;endArrow=open;dashed=1;endSize=8;edgeStyle=elbowEdgeStyle;elbow=vertical;curved=0;rounded=0;" parent="1" source="aM9ryv3xv72pqoxQDRHE-6" target="aM9ryv3xv72pqoxQDRHE-2" edge="1">
                    <mxGeometry relative="1" as="geometry">
                        <mxPoint x="195" y="205" as="targetPoint"/>
                        <Array as="points">
                            <mxPoint x="190" y="280"/>
                        </Array>
                    </mxGeometry>
                </mxCell>
                <mxCell id="aM9ryv3xv72pqoxQDRHE-9" value="callback" style="html=1;verticalAlign=bottom;endArrow=block;edgeStyle=elbowEdgeStyle;elbow=vertical;curved=0;rounded=0;" parent="1" source="aM9ryv3xv72pqoxQDRHE-6" target="aM9ryv3xv72pqoxQDRHE-4" edge="1">
                    <mxGeometry relative="1" as="geometry">
                        <mxPoint x="175" y="160" as="sourcePoint"/>
                        <Array as="points">
                            <mxPoint x="190" y="160"/>
                        </Array>
                    </mxGeometry>
                </mxCell>
                <mxCell id="aM9ryv3xv72pqoxQDRHE-10" value="return" style="html=1;verticalAlign=bottom;endArrow=open;dashed=1;endSize=8;edgeStyle=elbowEdgeStyle;elbow=vertical;curved=0;rounded=0;" parent="1" source="aM9ryv3xv72pqoxQDRHE-4" target="aM9ryv3xv72pqoxQDRHE-6" edge="1">
                    <mxGeometry relative="1" as="geometry">
                        <mxPoint x="175" y="235" as="targetPoint"/>
                        <Array as="points">
                            <mxPoint x="180" y="230"/>
                        </Array>
                    </mxGeometry>
                </mxCell>
            </root>
        </mxGraphModel>
    </diagram>
    <diagram id="j_QFnlxjq66Pkcmux0C3" name="Page-2">
        <mxGraphModel dx="709" dy="540" grid="1" gridSize="10" guides="1" tooltips="1" connect="1" arrows="0" fold="1" page="1" pageScale="1" pageWidth="2336" pageHeight="1654" math="0" shadow="0">
            <root>
                <mxCell id="0"/>
                <mxCell id="1" parent="0"/>
                <mxCell id="fRWRyWQBtPgUFVn23K5p-1" value="loop fi" style="shape=umlFrame;whiteSpace=wrap;html=1;" vertex="1" parent="1">
                    <mxGeometry x="580" y="310" width="600" height="520" as="geometry"/>
                </mxCell>
                <mxCell id="I8YVlJn-_nT1f_S0fezD-1" value=":Client" style="shape=umlLifeline;perimeter=lifelinePerimeter;whiteSpace=wrap;html=1;container=1;dropTarget=0;collapsible=0;recursiveResize=0;outlineConnect=0;portConstraint=eastwest;newEdgeStyle={&quot;edgeStyle&quot;:&quot;elbowEdgeStyle&quot;,&quot;elbow&quot;:&quot;vertical&quot;,&quot;curved&quot;:0,&quot;rounded&quot;:0};fillColor=#dae8fc;strokeColor=#6c8ebf;" parent="1" vertex="1">
                    <mxGeometry x="40" y="80" width="100" height="390" as="geometry"/>
                </mxCell>
                <mxCell id="I8YVlJn-_nT1f_S0fezD-5" value="&lt;i&gt;&lt;font style=&quot;font-size: 9px;&quot;&gt;__init__(k)&lt;/font&gt;&lt;/i&gt;" style="html=1;verticalAlign=bottom;startArrow=oval;endArrow=block;startSize=8;edgeStyle=elbowEdgeStyle;elbow=vertical;curved=0;rounded=0;" parent="I8YVlJn-_nT1f_S0fezD-1" edge="1">
                    <mxGeometry relative="1" as="geometry">
                        <mxPoint x="-20" y="80" as="sourcePoint"/>
                        <mxPoint x="40" y="80.14285714285711" as="targetPoint"/>
                    </mxGeometry>
                </mxCell>
                <mxCell id="I8YVlJn-_nT1f_S0fezD-6" value="" style="html=1;points=[];perimeter=orthogonalPerimeter;outlineConnect=0;targetShapes=umlLifeline;portConstraint=eastwest;newEdgeStyle={&quot;edgeStyle&quot;:&quot;elbowEdgeStyle&quot;,&quot;elbow&quot;:&quot;vertical&quot;,&quot;curved&quot;:0,&quot;rounded&quot;:0};fillColor=#b0e3e6;strokeColor=#0e8088;" parent="I8YVlJn-_nT1f_S0fezD-1" vertex="1">
                    <mxGeometry x="45" y="80" width="10" height="310" as="geometry"/>
                </mxCell>
                <mxCell id="I8YVlJn-_nT1f_S0fezD-11" value="Generate" style="shape=umlLifeline;perimeter=lifelinePerimeter;whiteSpace=wrap;html=1;container=1;dropTarget=0;collapsible=0;recursiveResize=0;outlineConnect=0;portConstraint=eastwest;newEdgeStyle={&quot;edgeStyle&quot;:&quot;elbowEdgeStyle&quot;,&quot;elbow&quot;:&quot;vertical&quot;,&quot;curved&quot;:0,&quot;rounded&quot;:0};fillColor=#f9f7ed;strokeColor=#36393d;" parent="1" vertex="1">
                    <mxGeometry x="180" y="80" width="100" height="260" as="geometry"/>
                </mxCell>
                <mxCell id="I8YVlJn-_nT1f_S0fezD-16" value="" style="html=1;points=[];perimeter=orthogonalPerimeter;outlineConnect=0;targetShapes=umlLifeline;portConstraint=eastwest;newEdgeStyle={&quot;edgeStyle&quot;:&quot;elbowEdgeStyle&quot;,&quot;elbow&quot;:&quot;vertical&quot;,&quot;curved&quot;:0,&quot;rounded&quot;:0};fillColor=#d0cee2;strokeColor=#56517e;" parent="I8YVlJn-_nT1f_S0fezD-11" vertex="1">
                    <mxGeometry x="45" y="120" width="10" height="80" as="geometry"/>
                </mxCell>
                <mxCell id="I8YVlJn-_nT1f_S0fezD-17" value="&lt;font style=&quot;font-size: 9px;&quot;&gt;&lt;i&gt;1: get_keys(k)&lt;/i&gt;&lt;/font&gt;" style="html=1;verticalAlign=bottom;endArrow=block;edgeStyle=elbowEdgeStyle;elbow=vertical;curved=0;rounded=0;" parent="1" target="I8YVlJn-_nT1f_S0fezD-16" edge="1">
                    <mxGeometry relative="1" as="geometry">
                        <mxPoint x="90" y="200" as="sourcePoint"/>
                    </mxGeometry>
                </mxCell>
                <mxCell id="I8YVlJn-_nT1f_S0fezD-18" value="&lt;i&gt;&lt;font style=&quot;font-size: 8px;&quot;&gt;1.2: return k1, k2, k3, [k4]&lt;/font&gt;&lt;/i&gt;" style="html=1;verticalAlign=bottom;endArrow=open;dashed=1;endSize=8;edgeStyle=elbowEdgeStyle;elbow=vertical;curved=0;rounded=0;" parent="1" source="I8YVlJn-_nT1f_S0fezD-16" edge="1">
                    <mxGeometry relative="1" as="geometry">
                        <mxPoint x="90" y="275" as="targetPoint"/>
                        <Array as="points">
                            <mxPoint x="100" y="275"/>
                        </Array>
                    </mxGeometry>
                </mxCell>
                <mxCell id="I8YVlJn-_nT1f_S0fezD-20" value="&lt;font style=&quot;font-size: 12px;&quot;&gt;: SecretKeyEnc&lt;/font&gt;" style="shape=umlLifeline;perimeter=lifelinePerimeter;whiteSpace=wrap;html=1;container=1;dropTarget=0;collapsible=0;recursiveResize=0;outlineConnect=0;portConstraint=eastwest;newEdgeStyle={&quot;edgeStyle&quot;:&quot;elbowEdgeStyle&quot;,&quot;elbow&quot;:&quot;vertical&quot;,&quot;curved&quot;:0,&quot;rounded&quot;:0};" parent="1" vertex="1">
                    <mxGeometry x="350" y="80" width="100" height="390" as="geometry"/>
                </mxCell>
                <mxCell id="I8YVlJn-_nT1f_S0fezD-21" value="" style="html=1;points=[];perimeter=orthogonalPerimeter;outlineConnect=0;targetShapes=umlLifeline;portConstraint=eastwest;newEdgeStyle={&quot;edgeStyle&quot;:&quot;elbowEdgeStyle&quot;,&quot;elbow&quot;:&quot;vertical&quot;,&quot;curved&quot;:0,&quot;rounded&quot;:0};fillColor=#fad7ac;strokeColor=#b46504;" parent="I8YVlJn-_nT1f_S0fezD-20" vertex="1">
                    <mxGeometry x="45" y="210" width="10" height="180" as="geometry"/>
                </mxCell>
                <mxCell id="I8YVlJn-_nT1f_S0fezD-23" value="&lt;i&gt;&lt;font style=&quot;font-size: 9px;&quot;&gt;2 : __init__([k4])&lt;/font&gt;&lt;/i&gt;" style="html=1;verticalAlign=bottom;endArrow=block;edgeStyle=elbowEdgeStyle;elbow=vertical;curved=0;rounded=0;" parent="1" source="I8YVlJn-_nT1f_S0fezD-6" target="I8YVlJn-_nT1f_S0fezD-20" edge="1">
                    <mxGeometry x="0.4026" width="80" relative="1" as="geometry">
                        <mxPoint x="100" y="290" as="sourcePoint"/>
                        <mxPoint x="180" y="290" as="targetPoint"/>
                        <Array as="points">
                            <mxPoint x="100" y="290"/>
                        </Array>
                        <mxPoint as="offset"/>
                    </mxGeometry>
                </mxCell>
                <mxCell id="I8YVlJn-_nT1f_S0fezD-24" value=":Encode" style="shape=umlLifeline;perimeter=lifelinePerimeter;whiteSpace=wrap;html=1;container=1;dropTarget=0;collapsible=0;recursiveResize=0;outlineConnect=0;portConstraint=eastwest;newEdgeStyle={&quot;edgeStyle&quot;:&quot;elbowEdgeStyle&quot;,&quot;elbow&quot;:&quot;vertical&quot;,&quot;curved&quot;:0,&quot;rounded&quot;:0};fillColor=#f9f7ed;strokeColor=#36393d;" parent="1" vertex="1">
                    <mxGeometry x="520" y="80" width="100" height="750" as="geometry"/>
                </mxCell>
                <mxCell id="I8YVlJn-_nT1f_S0fezD-27" value="" style="html=1;points=[];perimeter=orthogonalPerimeter;outlineConnect=0;targetShapes=umlLifeline;portConstraint=eastwest;newEdgeStyle={&quot;edgeStyle&quot;:&quot;elbowEdgeStyle&quot;,&quot;elbow&quot;:&quot;vertical&quot;,&quot;curved&quot;:0,&quot;rounded&quot;:0};" parent="I8YVlJn-_nT1f_S0fezD-24" vertex="1">
                    <mxGeometry x="45" y="280" width="10" height="470" as="geometry"/>
                </mxCell>
                <mxCell id="I8YVlJn-_nT1f_S0fezD-25" value="&lt;i&gt;&lt;font style=&quot;font-size: 9px;&quot;&gt;__init__(k1, k2, k3)&lt;/font&gt;&lt;/i&gt;" style="html=1;verticalAlign=bottom;endArrow=block;edgeStyle=elbowEdgeStyle;elbow=vertical;curved=0;rounded=0;" parent="1" source="I8YVlJn-_nT1f_S0fezD-6" target="I8YVlJn-_nT1f_S0fezD-24" edge="1">
                    <mxGeometry x="-0.787" y="-20" width="80" relative="1" as="geometry">
                        <mxPoint x="100" y="440" as="sourcePoint"/>
                        <mxPoint x="180" y="440" as="targetPoint"/>
                        <Array as="points">
                            <mxPoint x="210" y="360"/>
                        </Array>
                        <mxPoint as="offset"/>
                    </mxGeometry>
                </mxCell>
                <mxCell id="I8YVlJn-_nT1f_S0fezD-12" value="" style="shape=umlDestroy;dashed=0;targetShapes=umlLifeline;" parent="1" vertex="1">
                    <mxGeometry x="220" y="330" width="20" height="20" as="geometry"/>
                </mxCell>
                <mxCell id="I8YVlJn-_nT1f_S0fezD-28" value="&lt;i&gt;&lt;font style=&quot;font-size: 9px;&quot;&gt;enc(plain_dir, encoded_dir)&lt;/font&gt;&lt;/i&gt;" style="html=1;verticalAlign=bottom;endArrow=block;edgeStyle=elbowEdgeStyle;elbow=vertical;curved=0;rounded=0;" parent="1" edge="1">
                    <mxGeometry x="-0.6632" y="-20" width="80" relative="1" as="geometry">
                        <mxPoint x="90" y="410" as="sourcePoint"/>
                        <mxPoint x="565" y="410" as="targetPoint"/>
                        <Array as="points">
                            <mxPoint x="205" y="410"/>
                        </Array>
                        <mxPoint as="offset"/>
                    </mxGeometry>
                </mxCell>
                <mxCell id="I8YVlJn-_nT1f_S0fezD-29" value="FileTools" style="shape=umlLifeline;perimeter=lifelinePerimeter;whiteSpace=wrap;html=1;container=1;dropTarget=0;collapsible=0;recursiveResize=0;outlineConnect=0;portConstraint=eastwest;newEdgeStyle={&quot;edgeStyle&quot;:&quot;elbowEdgeStyle&quot;,&quot;elbow&quot;:&quot;vertical&quot;,&quot;curved&quot;:0,&quot;rounded&quot;:0};fillColor=#e1d5e7;strokeColor=#9673a6;" parent="1" vertex="1">
                    <mxGeometry x="940" y="80" width="100" height="490" as="geometry"/>
                </mxCell>
                <mxCell id="I8YVlJn-_nT1f_S0fezD-30" value="" style="html=1;points=[];perimeter=orthogonalPerimeter;outlineConnect=0;targetShapes=umlLifeline;portConstraint=eastwest;newEdgeStyle={&quot;edgeStyle&quot;:&quot;elbowEdgeStyle&quot;,&quot;elbow&quot;:&quot;vertical&quot;,&quot;curved&quot;:0,&quot;rounded&quot;:0};" parent="I8YVlJn-_nT1f_S0fezD-29" vertex="1">
                    <mxGeometry x="45" y="280" width="10" height="210" as="geometry"/>
                </mxCell>
                <mxCell id="I8YVlJn-_nT1f_S0fezD-31" value="PRF" style="shape=umlLifeline;perimeter=lifelinePerimeter;whiteSpace=wrap;html=1;container=1;dropTarget=0;collapsible=0;recursiveResize=0;outlineConnect=0;portConstraint=eastwest;newEdgeStyle={&quot;edgeStyle&quot;:&quot;elbowEdgeStyle&quot;,&quot;elbow&quot;:&quot;vertical&quot;,&quot;curved&quot;:0,&quot;rounded&quot;:0};fillColor=#d5e8d4;strokeColor=#82b366;" parent="1" vertex="1">
                    <mxGeometry x="710" y="80" width="100" height="490" as="geometry"/>
                </mxCell>
                <mxCell id="I8YVlJn-_nT1f_S0fezD-32" value="" style="html=1;points=[];perimeter=orthogonalPerimeter;outlineConnect=0;targetShapes=umlLifeline;portConstraint=eastwest;newEdgeStyle={&quot;edgeStyle&quot;:&quot;elbowEdgeStyle&quot;,&quot;elbow&quot;:&quot;vertical&quot;,&quot;curved&quot;:0,&quot;rounded&quot;:0};" parent="I8YVlJn-_nT1f_S0fezD-31" vertex="1">
                    <mxGeometry x="45" y="300" width="10" height="60" as="geometry"/>
                </mxCell>
                <mxCell id="fRWRyWQBtPgUFVn23K5p-2" value="" style="html=1;verticalAlign=bottom;labelBackgroundColor=none;endArrow=block;endFill=1;entryX=0.5;entryY=0;entryDx=0;entryDy=0;entryPerimeter=0;" edge="1" parent="1" target="I8YVlJn-_nT1f_S0fezD-32">
                    <mxGeometry width="160" relative="1" as="geometry">
                        <mxPoint x="580" y="380" as="sourcePoint"/>
                        <mxPoint x="740" y="380" as="targetPoint"/>
                    </mxGeometry>
                </mxCell>
                <mxCell id="fRWRyWQBtPgUFVn23K5p-4" value="&lt;i&gt;&lt;font style=&quot;font-size: 8px;&quot;&gt;1.2: return&amp;nbsp; f_f, g_f, p_f&lt;/font&gt;&lt;/i&gt;" style="html=1;verticalAlign=bottom;endArrow=open;dashed=1;endSize=8;edgeStyle=elbowEdgeStyle;elbow=vertical;curved=0;rounded=0;" edge="1" parent="1" source="I8YVlJn-_nT1f_S0fezD-32">
                    <mxGeometry x="0.1111" y="20" relative="1" as="geometry">
                        <mxPoint x="580" y="430" as="targetPoint"/>
                        <Array as="points">
                            <mxPoint x="590" y="430"/>
                        </Array>
                        <mxPoint x="715" y="430" as="sourcePoint"/>
                        <mxPoint as="offset"/>
                    </mxGeometry>
                </mxCell>
                <mxCell id="fRWRyWQBtPgUFVn23K5p-5" value="get_file_hashes" style="text;align=center;verticalAlign=middle;dashed=0;fontSize=9;fontStyle=2" vertex="1" parent="1">
                    <mxGeometry x="600" y="350" width="140" height="40" as="geometry"/>
                </mxCell>
                <mxCell id="fRWRyWQBtPgUFVn23K5p-6" value="" style="html=1;points=[];perimeter=orthogonalPerimeter;fontSize=9;" vertex="1" parent="1">
                    <mxGeometry x="580" y="490" width="10" height="40" as="geometry"/>
                </mxCell>
                <mxCell id="fRWRyWQBtPgUFVn23K5p-7" value="find_file_id" style="edgeStyle=orthogonalEdgeStyle;html=1;align=left;spacingLeft=2;endArrow=block;rounded=0;entryX=1;entryY=0;fontSize=9;" edge="1" target="fRWRyWQBtPgUFVn23K5p-6" parent="1">
                    <mxGeometry relative="1" as="geometry">
                        <mxPoint x="585" y="470" as="sourcePoint"/>
                        <Array as="points">
                            <mxPoint x="615" y="470"/>
                        </Array>
                    </mxGeometry>
                </mxCell>
                <mxCell id="fRWRyWQBtPgUFVn23K5p-9" value="" style="html=1;points=[];perimeter=orthogonalPerimeter;fontSize=9;" vertex="1" parent="1">
                    <mxGeometry x="580" y="580" width="10" height="40" as="geometry"/>
                </mxCell>
                <mxCell id="fRWRyWQBtPgUFVn23K5p-10" value="make_lf_lw" style="edgeStyle=orthogonalEdgeStyle;html=1;align=left;spacingLeft=2;endArrow=block;rounded=0;entryX=1;entryY=0;fontSize=9;" edge="1" target="fRWRyWQBtPgUFVn23K5p-9" parent="1">
                    <mxGeometry relative="1" as="geometry">
                        <mxPoint x="585" y="560" as="sourcePoint"/>
                        <Array as="points">
                            <mxPoint x="615" y="560"/>
                        </Array>
                    </mxGeometry>
                </mxCell>
                <mxCell id="fRWRyWQBtPgUFVn23K5p-11" value="" style="html=1;points=[];perimeter=orthogonalPerimeter;fontSize=9;" vertex="1" parent="1">
                    <mxGeometry x="580" y="650" width="10" height="40" as="geometry"/>
                </mxCell>
                <mxCell id="fRWRyWQBtPgUFVn23K5p-12" value="make free_list" style="edgeStyle=orthogonalEdgeStyle;html=1;align=left;spacingLeft=2;endArrow=block;rounded=0;entryX=1;entryY=0;fontSize=9;" edge="1" target="fRWRyWQBtPgUFVn23K5p-11" parent="1">
                    <mxGeometry relative="1" as="geometry">
                        <mxPoint x="585" y="630" as="sourcePoint"/>
                        <Array as="points">
                            <mxPoint x="615" y="630"/>
                        </Array>
                    </mxGeometry>
                </mxCell>
                <mxCell id="fRWRyWQBtPgUFVn23K5p-27" value="" style="html=1;points=[];perimeter=orthogonalPerimeter;fontSize=9;" vertex="1" parent="1">
                    <mxGeometry x="580" y="730" width="10" height="40" as="geometry"/>
                </mxCell>
                <mxCell id="fRWRyWQBtPgUFVn23K5p-28" value="meake_arrays" style="edgeStyle=orthogonalEdgeStyle;html=1;align=left;spacingLeft=2;endArrow=block;rounded=0;entryX=1;entryY=0;fontSize=9;" edge="1" target="fRWRyWQBtPgUFVn23K5p-27" parent="1">
                    <mxGeometry relative="1" as="geometry">
                        <mxPoint x="585" y="710" as="sourcePoint"/>
                        <Array as="points">
                            <mxPoint x="615" y="710"/>
                        </Array>
                    </mxGeometry>
                </mxCell>
                <mxCell id="fRWRyWQBtPgUFVn23K5p-29" value="" style="html=1;points=[];perimeter=orthogonalPerimeter;fontSize=9;" vertex="1" parent="1">
                    <mxGeometry x="755" y="570" width="10" height="20" as="geometry"/>
                </mxCell>
                <mxCell id="fRWRyWQBtPgUFVn23K5p-30" value="dispatch" style="html=1;verticalAlign=bottom;endArrow=block;entryX=0;entryY=0;fontSize=9;" edge="1" target="fRWRyWQBtPgUFVn23K5p-29" parent="1">
                    <mxGeometry relative="1" as="geometry">
                        <mxPoint x="670" y="570" as="sourcePoint"/>
                    </mxGeometry>
                </mxCell>
                <mxCell id="fRWRyWQBtPgUFVn23K5p-31" value="return" style="html=1;verticalAlign=bottom;endArrow=open;dashed=1;endSize=8;exitX=0;exitY=0.95;fontSize=9;" edge="1" source="fRWRyWQBtPgUFVn23K5p-29" parent="1">
                    <mxGeometry relative="1" as="geometry">
                        <mxPoint x="620" y="580" as="targetPoint"/>
                    </mxGeometry>
                </mxCell>
            </root>
        </mxGraphModel>
    </diagram>
</mxfile>